<svg xmlns="http://www.w3.org/2000/svg" viewBox="0 0 600 600" preserveAspectRatio="xMidYMid meet" aria-hidden="true" focusable="false"><rect width="600" height="600" fill="#F7F4ED"/><path d="M58.4,58.3 L78.9,54.4 L100.9,50.7 L123.2,47.9 L144.4,46.8 L163.6,47.7 L180.6,50.9 L195.9,56.1 L210.5,62.3 L225.7,68.6 L242.8,73.7 L262.1,76.8 L283.4,77.2 L305.7,74.6 L327.7,69.6 L348.1,63.0 L366.3,56.0 L382.4,49.8 L397.2,45.5 L411.9,43.8 L427.9,44.7 L446.0,48.1 L466.3,53.0 L488.2,58.5 L510.5,63.7 L531.9,67.6 L551.4,69.8 M63.9,76.9 L85.9,74.6 L108.1,72.0 L129.4,69.7 L148.6,68.1 L165.6,68.0 L180.8,69.7 L195.4,73.2 L210.7,78.2 L227.8,83.8 L247.1,89.1 L268.4,93.1 L290.7,94.8 L312.7,93.9 L333.1,90.3 L351.3,84.6 L367.4,77.7 L382.2,70.8 L396.9,65.2 L412.9,61.9 L431.0,61.3 L451.3,63.6 L473.2,68.2 L495.5,74.2 L516.9,80.5 L536.3,85.9 L553.5,89.7 M69.6,94.0 L91.9,93.3 L113.1,92.2 L132.3,91.0 L149.3,89.8 L164.6,89.4 L179.1,90.0 L194.4,92.0 L211.5,95.3 L230.8,99.7 L252.1,104.4 L274.4,108.5 L296.4,111.1 L316.8,111.6 L335.0,109.6 L351.1,105.3 L365.9,99.2 L380.6,92.5 L396.6,86.2 L414.7,81.5 L435.0,79.4 L456.9,80.2 L479.2,83.7 L500.6,89.4 L520.1,96.1 L537.3,102.7 L552.6,108.1 M74.0,109.8 L95.2,110.4 L114.5,110.9 L131.5,111.1 L146.7,111.1 L161.3,111.1 L176.6,111.3 L193.6,112.2 L213.0,114.1 L234.3,116.9 L256.6,120.3 L278.5,123.7 L298.9,126.5 L317.2,127.9 L333.2,127.3 L348.0,124.6 L362.8,119.9 L378.7,114.0 L396.8,107.9 L417.1,102.5 L439.0,99.1 L461.3,98.3 L482.7,100.3 L502.2,104.9 L519.4,111.3 L534.8,118.4 L549.4,124.9 M75.7,125.0 L94.9,126.2 L111.9,128.0 L127.2,129.8 L141.7,131.3 L157.0,132.4 L174.1,133.0 L193.4,133.6 L214.7,134.4 L237.0,135.6 L259.0,137.4 L279.4,139.6 L297.6,141.8 L313.7,143.3 L328.5,143.6 L343.2,142.3 L359.2,139.2 L377.3,134.7 L397.6,129.4 L419.5,124.2 L441.8,120.1 L463.2,118.0 L482.7,118.4 L499.9,121.5 L515.2,126.9 L529.8,133.6 L545.0,140.5 M73.9,140.5 L90.9,141.4 L106.1,143.8 L120.7,146.9 L136.0,150.0 L153.1,152.6 L172.4,154.3 L193.7,155.3 L216.0,155.7 L237.9,155.9 L258.4,156.2 L276.6,156.8 L292.7,157.6 L307.4,158.5 L322.2,159.0 L338.2,158.6 L356.2,156.9 L376.5,154.1 L398.4,150.1 L420.7,145.8 L442.1,141.7 L461.6,138.9 L478.8,138.1 L494.2,139.6 L508.8,143.5 L523.9,149.1 L540.8,155.7 M68.7,156.8 L84.0,156.8 L98.5,159.0 L113.8,162.7 L130.9,167.0 L150.2,171.2 L171.5,174.5 L193.8,176.6 L215.8,177.4 L236.2,177.2 L254.4,176.4 L270.5,175.5 L285.3,174.8 L300.0,174.4 L316.0,174.2 L334.1,173.9 L354.4,173.2 L376.3,171.7 L398.6,169.4 L420.0,166.5 L439.5,163.3 L456.7,160.6 L472.0,159.1 L486.6,159.3 L501.8,161.6 L518.6,165.7 L537.7,171.3 M61.2,174.6 L75.8,173.2 L91.1,174.4 L108.2,177.9 L127.5,182.9 L148.8,188.3 L171.1,193.2 L193.1,196.8 L213.5,198.7 L231.7,198.9 L247.8,197.8 L262.6,195.8 L277.3,193.6 L293.3,191.6 L311.4,190.1 L331.7,189.2 L353.6,188.6 L375.9,188.0 L397.3,187.1 L416.7,185.8 L433.9,184.0 L449.3,182.2 L463.9,180.7 L479.1,180.3 L495.9,181.2 L515.0,183.8 L536.2,187.9 M53.2,194.0 L68.5,191.0 L85.6,190.8 L104.9,193.3 L126.2,198.1 L148.5,204.1 L170.4,210.2 L190.9,215.4 L209.1,218.9 L225.2,220.2 L240.0,219.5 L254.7,217.1 L270.7,213.8 L288.7,210.3 L309.1,207.3 L330.9,205.1 L353.3,203.9 L374.7,203.4 L394.1,203.4 L411.3,203.5 L426.7,203.3 L441.3,202.9 L456.4,202.3 L473.3,201.9 L492.4,202.2 L513.5,203.5 L535.8,205.9 M46.6,214.8 L63.7,210.4 L83.0,208.6 L104.3,209.7 L126.6,213.5 L148.6,219.3 L169.0,226.1 L187.2,232.5 L203.3,237.6 L218.1,240.4 L232.8,240.8 L248.8,238.9 L266.9,235.2 L287.2,230.6 L309.1,226.0 L331.4,222.2 L352.8,219.7 L372.2,218.7 L389.4,218.8 L404.8,219.7 L419.4,221.0 L434.5,222.2 L451.4,223.0 L470.5,223.5 L491.6,223.9 L513.9,224.5 L535.9,225.6 M43.0,236.4 L62.4,231.2 L83.7,228.0 L106.0,227.5 L127.9,229.9 L148.3,234.8 L166.6,241.3 L182.6,248.3 L197.4,254.6 L212.2,259.1 L228.1,261.0 L246.2,260.2 L266.5,256.9 L288.4,251.9 L310.7,246.3 L332.1,241.0 L351.6,236.9 L368.8,234.5 L384.2,234.0 L398.8,235.1 L413.9,237.3 L430.8,239.9 L449.9,242.3 L471.0,244.2 L493.3,245.4 L515.3,246.1 L535.9,246.6 M43.3,258.0 L64.6,252.8 L86.9,248.8 L108.9,246.9 L129.3,247.7 L147.5,251.1 L163.6,256.7 L178.4,263.6 L193.1,270.5 L209.1,276.2 L227.2,279.6 L247.5,280.3 L269.4,278.2 L291.7,273.7 L313.1,267.6 L332.5,261.3 L349.7,255.7 L365.1,251.7 L379.7,249.9 L394.9,250.4 L411.7,252.7 L430.8,256.2 L451.9,260.0 L474.2,263.5 L496.2,266.2 L516.9,267.7 L535.3,268.3 M47.2,278.9 L69.5,274.4 L91.5,270.4 L111.9,267.7 L130.1,267.1 L146.2,268.9 L161.0,273.1 L175.7,279.0 L191.7,285.7 L209.8,292.0 L230.1,296.7 L252.0,299.0 L274.3,298.4 L295.7,295.0 L315.2,289.4 L332.4,282.6 L347.7,275.9 L362.3,270.5 L377.5,267.1 L394.3,266.3 L413.4,267.9 L434.6,271.5 L456.8,276.3 L478.9,281.2 L499.5,285.5 L517.9,288.4 L534.2,289.8 M53.6,298.5 L75.6,295.3 L96.0,292.0 L114.2,289.3 L130.3,287.8 L145.1,288.3 L159.8,290.9 L175.8,295.3 L193.9,301.1 L214.2,307.2 L236.1,312.5 L258.4,316.1 L279.8,317.0 L299.3,315.1 L316.5,310.7 L331.8,304.3 L346.4,297.3 L361.6,290.7 L378.4,285.8 L397.5,283.4 L418.7,283.8 L440.9,286.8 L463.0,291.7 L483.6,297.5 L502.1,303.2 L518.3,307.7 L533.2,310.5 M60.8,316.5 L81.3,314.9 L99.5,312.9 L115.6,310.9 L130.3,309.4 L145.1,309.1 L161.1,310.3 L179.1,313.1 L199.4,317.5 L221.3,322.6 L243.6,327.8 L265.0,331.9 L284.5,334.1 L301.7,333.8 L317.1,330.8 L331.7,325.6 L346.8,319.0 L363.7,312.1 L382.8,306.1 L403.9,302.2 L426.2,301.0 L448.2,302.7 L468.8,306.9 L487.3,312.9 L503.6,319.4 L518.4,325.4 L533.1,329.9 M67.1,333.0 L85.3,332.9 L101.4,332.5 L116.1,331.8 L130.9,331.1 L146.9,330.7 L164.9,331.0 L185.2,332.5 L207.1,335.3 L229.4,339.0 L250.8,343.2 L270.3,347.1 L287.5,349.9 L302.9,350.9 L317.5,349.5 L332.6,345.8 L349.5,340.3 L368.6,333.8 L389.7,327.5 L412.0,322.4 L434.0,319.7 L454.6,319.8 L473.1,322.8 L489.4,328.1 L504.2,334.8 L518.9,341.7 L534.7,347.5 M71.0,348.5 L87.1,349.4 L101.8,350.5 L116.6,351.4 L132.5,352.0 L150.6,352.3 L170.9,352.6 L192.8,353.3 L215.1,354.7 L236.5,356.8 L256.0,359.5 L273.2,362.6 L288.6,365.2 L303.2,366.7 L318.3,366.6 L335.2,364.5 L354.3,360.5 L375.4,355.1 L397.7,349.2 L419.7,343.8 L440.3,340.0 L458.8,338.6 L475.1,340.0 L489.9,344.0 L504.6,350.1 L520.4,357.1 L538.2,363.8 M72.0,363.7 L86.8,364.9 L101.5,367.0 L117.5,369.4 L135.6,371.6 L155.9,373.2 L177.8,374.3 L200.1,374.9 L221.5,375.4 L241.0,376.2 L258.2,377.3 L273.5,378.9 L288.1,380.6 L303.3,381.9 L320.1,382.4 L339.2,381.5 L360.4,379.1 L382.6,375.3 L404.7,370.5 L425.3,365.5 L443.7,361.3 L460.0,358.9 L474.9,358.7 L489.6,361.2 L505.4,366.0 L523.2,372.3 L543.3,379.2 M70.5,379.5 L85.2,380.1 L101.2,382.5 L119.3,385.9 L139.6,389.6 L161.5,392.8 L183.8,395.2 L205.2,396.6 L224.7,397.0 L241.9,397.0 L257.2,396.7 L271.8,396.7 L287.0,396.9 L303.8,397.4 L323.0,397.6 L344.1,397.4 L366.3,396.2 L388.4,393.9 L409.0,390.7 L427.5,386.8 L443.7,383.1 L458.6,380.2 L473.3,379.0 L489.1,379.9 L506.9,383.1 L527.0,388.2 L548.8,394.5 M67.4,396.3 L83.4,395.8 L101.4,397.7 L121.7,401.4 L143.6,406.1 L165.9,410.8 L187.3,414.8 L206.8,417.5 L224.0,418.7 L239.4,418.5 L254.0,417.5 L269.1,416.1 L286.0,414.7 L305.1,413.7 L326.2,413.1 L348.5,412.6 L370.5,412.0 L391.1,411.0 L409.6,409.3 L425.9,407.0 L440.7,404.4 L455.4,401.9 L471.2,400.3 L489.1,400.2 L509.2,401.9 L530.9,405.4 L553.3,410.3 M63.8,414.8 L81.9,412.7 L102.2,413.4 L124.1,416.6 L146.4,421.6 L167.8,427.3 L187.3,432.8 L204.5,437.1 L219.8,439.6 L234.4,440.2 L249.6,439.1 L266.4,436.9 L285.5,434.1 L306.7,431.5 L328.9,429.4 L351.0,428.0 L371.6,427.3 L390.1,426.8 L406.3,426.4 L421.2,425.7 L435.9,424.5 L451.7,423.2 L469.5,422.1 L489.6,421.5 L511.4,422.1 L533.7,424.1 L555.3,427.5 M60.8,434.8 L81.1,431.2 L103.0,430.3 L125.3,432.3 L146.7,436.8 L166.2,442.8 L183.4,449.3 L198.8,455.1 L213.4,459.2 L228.5,461.1 L245.4,460.8 L264.5,458.5 L285.6,454.9 L307.9,450.9 L329.9,447.2 L350.6,444.4 L369.0,442.7 L385.3,442.1 L400.1,442.2 L414.8,442.7 L430.6,443.2 L448.5,443.4 L468.6,443.4 L490.3,443.3 L512.7,443.5 L534.2,444.4 L553.9,446.3 M59.0,456.0 L80.9,451.2 L103.2,448.8 L124.6,449.2 L144.1,452.5 L161.3,458.0 L176.6,464.8 L191.2,471.6 L206.4,477.2 L223.2,480.7 L242.3,481.7 L263.5,480.1 L285.7,476.5 L307.8,471.7 L328.4,466.6 L346.8,462.2 L363.1,459.0 L378.0,457.5 L392.7,457.5 L408.5,458.6 L426.3,460.3 L446.4,462.1 L468.2,463.5 L490.5,464.6 L512.1,465.2 L531.7,465.7 L549.2,466.5 M58.2,477.7 L80.5,472.4 L101.9,468.8 L121.3,467.7 L138.5,469.4 L153.9,473.8 L168.5,480.0 L183.7,487.1 L200.5,493.7 L219.6,498.7 L240.8,501.3 L263.0,501.0 L285.1,498.1 L305.7,493.3 L324.1,487.4 L340.4,481.6 L355.3,476.8 L369.9,473.8 L385.7,472.9 L403.6,473.8 L423.7,476.1 L445.5,479.1 L467.8,482.2 L489.3,484.7 L509.0,486.5 L526.5,487.5 L542.0,487.9 M57.9,499.1 L79.3,494.1 L98.7,490.0 L115.9,487.7 L131.3,487.9 L145.9,490.6 L161.0,495.7 L177.9,502.3 L197.0,509.2 L218.1,515.2 L240.4,519.3 L262.4,520.6 L283.1,519.1 L301.5,514.9 L317.8,509.0 L332.6,502.3 L347.3,496.2 L363.1,491.6 L381.0,489.2 L401.1,489.2 L422.9,491.3 L445.2,495.0 L466.7,499.3 L486.4,503.4 L503.8,506.7 L519.4,508.8 L534.0,509.6 M57.4,519.6 L76.8,515.5 L94.0,511.7 L109.4,508.9 L124.0,507.9 L139.2,509.1 L156.0,512.6 L175.1,518.0 L196.3,524.4 L218.5,530.7 L240.6,535.8 L261.2,538.6 L279.6,538.7 L295.9,535.8 L310.8,530.6 L325.4,523.9 L341.2,517.0 L359.1,511.0 L379.2,507.0 L401.0,505.6 L423.3,506.8 L444.8,510.2 L464.5,515.1 L482.0,520.5 L497.5,525.3 L512.1,529.0 L527.1,530.9 M56.2,538.5 L73.4,536.0 L88.8,533.1 L103.4,530.6 L118.5,529.1 L135.4,529.1 L154.5,531.1 L175.6,534.9 L197.9,540.1 L219.9,545.9 L240.5,551.3 L259.0,555.1 L275.3,556.6 L290.1,555.4 L304.8,551.5 L320.6,545.6 L338.5,538.6 L358.5,531.8 L380.3,526.4 L402.7,523.3 L424.2,523.1 L443.9,525.6 L461.3,530.3 L476.8,536.3 L491.4,542.4 L506.5,547.6 L523.1,551.1 M58.4,58.3 L63.9,76.9 L69.6,94.0 L74.0,109.8 L75.7,125.0 L73.9,140.5 L68.7,156.8 L61.2,174.6 L53.2,194.0 L46.6,214.8 L43.0,236.4 L43.3,258.0 L47.2,278.9 L53.6,298.5 L60.8,316.5 L67.1,333.0 L71.0,348.5 L72.0,363.7 L70.5,379.5 L67.4,396.3 L63.8,414.8 L60.8,434.8 L59.0,456.0 L58.2,477.7 L57.9,499.1 L57.4,519.6 L56.2,538.5 M78.9,54.4 L85.9,74.6 L91.9,93.3 L95.2,110.4 L94.9,126.2 L90.9,141.4 L84.0,156.8 L75.8,173.2 L68.5,191.0 L63.7,210.4 L62.4,231.2 L64.6,252.8 L69.5,274.4 L75.6,295.3 L81.3,314.9 L85.3,332.9 L87.1,349.4 L86.8,364.9 L85.2,380.1 L83.4,395.8 L81.9,412.7 L81.1,431.2 L80.9,451.2 L80.5,472.4 L79.3,494.1 L76.8,515.5 L73.4,536.0 M100.9,50.7 L108.1,72.0 L113.1,92.2 L114.5,110.9 L111.9,128.0 L106.1,143.8 L98.5,159.0 L91.1,174.4 L85.6,190.8 L83.0,208.6 L83.7,228.0 L86.9,248.8 L91.5,270.4 L96.0,292.0 L99.5,312.9 L101.4,332.5 L101.8,350.5 L101.5,367.0 L101.2,382.5 L101.4,397.7 L102.2,413.4 L103.0,430.3 L103.2,448.8 L101.9,468.8 L98.7,490.0 L94.0,511.7 L88.8,533.1 M123.2,47.9 L129.4,69.7 L132.3,91.0 L131.5,111.1 L127.2,129.8 L120.7,146.9 L113.8,162.7 L108.2,177.9 L104.9,193.3 L104.3,209.7 L106.0,227.5 L108.9,246.9 L111.9,267.7 L114.2,289.3 L115.6,310.9 L116.1,331.8 L116.6,351.4 L117.5,369.4 L119.3,385.9 L121.7,401.4 L124.1,416.6 L125.3,432.3 L124.6,449.2 L121.3,467.7 L115.9,487.7 L109.4,508.9 L103.4,530.6 M144.4,46.8 L148.6,68.1 L149.3,89.8 L146.7,111.1 L141.7,131.3 L136.0,150.0 L130.9,167.0 L127.5,182.9 L126.2,198.1 L126.6,213.5 L127.9,229.9 L129.3,247.7 L130.1,267.1 L130.3,287.8 L130.3,309.4 L130.9,331.1 L132.5,352.0 L135.6,371.6 L139.6,389.6 L143.6,406.1 L146.4,421.6 L146.7,436.8 L144.1,452.5 L138.5,469.4 L131.3,487.9 L124.0,507.9 L118.5,529.1 M163.6,47.7 L165.6,68.0 L164.6,89.4 L161.3,111.1 L157.0,132.4 L153.1,152.6 L150.2,171.2 L148.8,188.3 L148.5,204.1 L148.6,219.3 L148.3,234.8 L147.5,251.1 L146.2,268.9 L145.1,288.3 L145.1,309.1 L146.9,330.7 L150.6,352.3 L155.9,373.2 L161.5,392.8 L165.9,410.8 L167.8,427.3 L166.2,442.8 L161.3,458.0 L153.9,473.8 L145.9,490.6 L139.2,509.1 L135.4,529.1 M180.6,50.9 L180.8,69.7 L179.1,90.0 L176.6,111.3 L174.1,133.0 L172.4,154.3 L171.5,174.5 L171.1,193.2 L170.4,210.2 L169.0,226.1 L166.6,241.3 L163.6,256.7 L161.0,273.1 L159.8,290.9 L161.1,310.3 L164.9,331.0 L170.9,352.6 L177.8,374.3 L183.8,395.2 L187.3,414.8 L187.3,432.8 L183.4,449.3 L176.6,464.8 L168.5,480.0 L161.0,495.7 L156.0,512.6 L154.5,531.1 M195.9,56.1 L195.4,73.2 L194.4,92.0 L193.6,112.2 L193.4,133.6 L193.7,155.3 L193.8,176.6 L193.1,196.8 L190.9,215.4 L187.2,232.5 L182.6,248.3 L178.4,263.6 L175.7,279.0 L175.8,295.3 L179.1,313.1 L185.2,332.5 L192.8,353.3 L200.1,374.9 L205.2,396.6 L206.8,417.5 L204.5,437.1 L198.8,455.1 L191.2,471.6 L183.7,487.1 L177.9,502.3 L175.1,518.0 L175.6,534.9 M210.5,62.3 L210.7,78.2 L211.5,95.3 L213.0,114.1 L214.7,134.4 L216.0,155.7 L215.8,177.4 L213.5,198.7 L209.1,218.9 L203.3,237.6 L197.4,254.6 L193.1,270.5 L191.7,285.7 L193.9,301.1 L199.4,317.5 L207.1,335.3 L215.1,354.7 L221.5,375.4 L224.7,397.0 L224.0,418.7 L219.8,439.6 L213.4,459.2 L206.4,477.2 L200.5,493.7 L197.0,509.2 L196.3,524.4 L197.9,540.1 M225.7,68.6 L227.8,83.8 L230.8,99.7 L234.3,116.9 L237.0,135.6 L237.9,155.9 L236.2,177.2 L231.7,198.9 L225.2,220.2 L218.1,240.4 L212.2,259.1 L209.1,276.2 L209.8,292.0 L214.2,307.2 L221.3,322.6 L229.4,339.0 L236.5,356.8 L241.0,376.2 L241.9,397.0 L239.4,418.5 L234.4,440.2 L228.5,461.1 L223.2,480.7 L219.6,498.7 L218.1,515.2 L218.5,530.7 L219.9,545.9 M242.8,73.7 L247.1,89.1 L252.1,104.4 L256.6,120.3 L259.0,137.4 L258.4,156.2 L254.4,176.4 L247.8,197.8 L240.0,219.5 L232.8,240.8 L228.1,261.0 L227.2,279.6 L230.1,296.7 L236.1,312.5 L243.6,327.8 L250.8,343.2 L256.0,359.5 L258.2,377.3 L257.2,396.7 L254.0,417.5 L249.6,439.1 L245.4,460.8 L242.3,481.7 L240.8,501.3 L240.4,519.3 L240.6,535.8 L240.5,551.3 M262.1,76.8 L268.4,93.1 L274.4,108.5 L278.5,123.7 L279.4,139.6 L276.6,156.8 L270.5,175.5 L262.6,195.8 L254.7,217.1 L248.8,238.9 L246.2,260.2 L247.5,280.3 L252.0,299.0 L258.4,316.1 L265.0,331.9 L270.3,347.1 L273.2,362.6 L273.5,378.9 L271.8,396.7 L269.1,416.1 L266.4,436.9 L264.5,458.5 L263.5,480.1 L263.0,501.0 L262.4,520.6 L261.2,538.6 L259.0,555.1 M283.4,77.2 L290.7,94.8 L296.4,111.1 L298.9,126.5 L297.6,141.8 L292.7,157.6 L285.3,174.8 L277.3,193.6 L270.7,213.8 L266.9,235.2 L266.5,256.9 L269.4,278.2 L274.3,298.4 L279.8,317.0 L284.5,334.1 L287.5,349.9 L288.6,365.2 L288.1,380.6 L287.0,396.9 L286.0,414.7 L285.5,434.1 L285.6,454.9 L285.7,476.5 L285.1,498.1 L283.1,519.1 L279.6,538.7 L275.3,556.6 M305.7,74.6 L312.7,93.9 L316.8,111.6 L317.2,127.9 L313.7,143.3 L307.4,158.5 L300.0,174.4 L293.3,191.6 L288.7,210.3 L287.2,230.6 L288.4,251.9 L291.7,273.7 L295.7,295.0 L299.3,315.1 L301.7,333.8 L302.9,350.9 L303.2,366.7 L303.3,381.9 L303.8,397.4 L305.1,413.7 L306.7,431.5 L307.9,450.9 L307.8,471.7 L305.7,493.3 L301.5,514.9 L295.9,535.8 L290.1,555.4 M327.7,69.6 L333.1,90.3 L335.0,109.6 L333.2,127.3 L328.5,143.6 L322.2,159.0 L316.0,174.2 L311.4,190.1 L309.1,207.3 L309.1,226.0 L310.7,246.3 L313.1,267.6 L315.2,289.4 L316.5,310.7 L317.1,330.8 L317.5,349.5 L318.3,366.6 L320.1,382.4 L323.0,397.6 L326.2,413.1 L328.9,429.4 L329.9,447.2 L328.4,466.6 L324.1,487.4 L317.8,509.0 L310.8,530.6 L304.8,551.5 M348.1,63.0 L351.3,84.6 L351.1,105.3 L348.0,124.6 L343.2,142.3 L338.2,158.6 L334.1,173.9 L331.7,189.2 L330.9,205.1 L331.4,222.2 L332.1,241.0 L332.5,261.3 L332.4,282.6 L331.8,304.3 L331.7,325.6 L332.6,345.8 L335.2,364.5 L339.2,381.5 L344.1,397.4 L348.5,412.6 L351.0,428.0 L350.6,444.4 L346.8,462.2 L340.4,481.6 L332.6,502.3 L325.4,523.9 L320.6,545.6 M366.3,56.0 L367.4,77.7 L365.9,99.2 L362.8,119.9 L359.2,139.2 L356.2,156.9 L354.4,173.2 L353.6,188.6 L353.3,203.9 L352.8,219.7 L351.6,236.9 L349.7,255.7 L347.7,275.9 L346.4,297.3 L346.8,319.0 L349.5,340.3 L354.3,360.5 L360.4,379.1 L366.3,396.2 L370.5,412.0 L371.6,427.3 L369.0,442.7 L363.1,459.0 L355.3,476.8 L347.3,496.2 L341.2,517.0 L338.5,538.6 M382.4,49.8 L382.2,70.8 L380.6,92.5 L378.7,114.0 L377.3,134.7 L376.5,154.1 L376.3,171.7 L375.9,188.0 L374.7,203.4 L372.2,218.7 L368.8,234.5 L365.1,251.7 L362.3,270.5 L361.6,290.7 L363.7,312.1 L368.6,333.8 L375.4,355.1 L382.6,375.3 L388.4,393.9 L391.1,411.0 L390.1,426.8 L385.3,442.1 L378.0,457.5 L369.9,473.8 L363.1,491.6 L359.1,511.0 L358.5,531.8 M397.2,45.5 L396.9,65.2 L396.6,86.2 L396.8,107.9 L397.6,129.4 L398.4,150.1 L398.6,169.4 L397.3,187.1 L394.1,203.4 L389.4,218.8 L384.2,234.0 L379.7,249.9 L377.5,267.1 L378.4,285.8 L382.8,306.1 L389.7,327.5 L397.7,349.2 L404.7,370.5 L409.0,390.7 L409.6,409.3 L406.3,426.4 L400.1,442.2 L392.7,457.5 L385.7,472.9 L381.0,489.2 L379.2,507.0 L380.3,526.4 M411.9,43.8 L412.9,61.9 L414.7,81.5 L417.1,102.5 L419.5,124.2 L420.7,145.8 L420.0,166.5 L416.7,185.8 L411.3,203.5 L404.8,219.7 L398.8,235.1 L394.9,250.4 L394.3,266.3 L397.5,283.4 L403.9,302.2 L412.0,322.4 L419.7,343.8 L425.3,365.5 L427.5,386.8 L425.9,407.0 L421.2,425.7 L414.8,442.7 L408.5,458.6 L403.6,473.8 L401.1,489.2 L401.0,505.6 L402.7,523.3 M427.9,44.7 L431.0,61.3 L435.0,79.4 L439.0,99.1 L441.8,120.1 L442.1,141.7 L439.5,163.3 L433.9,184.0 L426.7,203.3 L419.4,221.0 L413.9,237.3 L411.7,252.7 L413.4,267.9 L418.7,283.8 L426.2,301.0 L434.0,319.7 L440.3,340.0 L443.7,361.3 L443.7,383.1 L440.7,404.4 L435.9,424.5 L430.6,443.2 L426.3,460.3 L423.7,476.1 L422.9,491.3 L423.3,506.8 L424.2,523.1 M446.0,48.1 L451.3,63.6 L456.9,80.2 L461.3,98.3 L463.2,118.0 L461.6,138.9 L456.7,160.6 L449.3,182.2 L441.3,202.9 L434.5,222.2 L430.8,239.9 L430.8,256.2 L434.6,271.5 L440.9,286.8 L448.2,302.7 L454.6,319.8 L458.8,338.6 L460.0,358.9 L458.6,380.2 L455.4,401.9 L451.7,423.2 L448.5,443.4 L446.4,462.1 L445.5,479.1 L445.2,495.0 L444.8,510.2 L443.9,525.6 M466.3,53.0 L473.2,68.2 L479.2,83.7 L482.7,100.3 L482.7,118.4 L478.8,138.1 L472.0,159.1 L463.9,180.7 L456.4,202.3 L451.4,223.0 L449.9,242.3 L451.9,260.0 L456.8,276.3 L463.0,291.7 L468.8,306.9 L473.1,322.8 L475.1,340.0 L474.9,358.7 L473.3,379.0 L471.2,400.3 L469.5,422.1 L468.6,443.4 L468.2,463.5 L467.8,482.2 L466.7,499.3 L464.5,515.1 L461.3,530.3 M488.2,58.5 L495.5,74.2 L500.6,89.4 L502.2,104.9 L499.9,121.5 L494.2,139.6 L486.6,159.3 L479.1,180.3 L473.3,201.9 L470.5,223.5 L471.0,244.2 L474.2,263.5 L478.9,281.2 L483.6,297.5 L487.3,312.9 L489.4,328.1 L489.9,344.0 L489.6,361.2 L489.1,379.9 L489.1,400.2 L489.6,421.5 L490.3,443.3 L490.5,464.6 L489.3,484.7 L486.4,503.4 L482.0,520.5 L476.8,536.3 M510.5,63.7 L516.9,80.5 L520.1,96.1 L519.4,111.3 L515.2,126.9 L508.8,143.5 L501.8,161.6 L495.9,181.2 L492.4,202.2 L491.6,223.9 L493.3,245.4 L496.2,266.2 L499.5,285.5 L502.1,303.2 L503.6,319.4 L504.2,334.8 L504.6,350.1 L505.4,366.0 L506.9,383.1 L509.2,401.9 L511.4,422.1 L512.7,443.5 L512.1,465.2 L509.0,486.5 L503.8,506.7 L497.5,525.3 L491.4,542.4 M531.9,67.6 L536.3,85.9 L537.3,102.7 L534.8,118.4 L529.8,133.6 L523.9,149.1 L518.6,165.7 L515.0,183.8 L513.5,203.5 L513.9,224.5 L515.3,246.1 L516.9,267.7 L517.9,288.4 L518.3,307.7 L518.4,325.4 L518.9,341.7 L520.4,357.1 L523.2,372.3 L527.0,388.2 L530.9,405.4 L533.7,424.1 L534.2,444.4 L531.7,465.7 L526.5,487.5 L519.4,508.8 L512.1,529.0 L506.5,547.6 M551.4,69.8 L553.5,89.7 L552.6,108.1 L549.4,124.9 L545.0,140.5 L540.8,155.7 L537.7,171.3 L536.2,187.9 L535.8,205.9 L535.9,225.6 L535.9,246.6 L535.3,268.3 L534.2,289.8 L533.2,310.5 L533.1,329.9 L534.7,347.5 L538.2,363.8 L543.3,379.2 L548.8,394.5 L553.3,410.3 L555.3,427.5 L553.9,446.3 L549.2,466.5 L542.0,487.9 L534.0,509.6 L527.1,530.9 L523.1,551.1" fill="none" stroke="#171B2B" stroke-width="1.1" stroke-linejoin="round"/></svg>