<svg xmlns="http://www.w3.org/2000/svg" viewBox="0 0 600 600" preserveAspectRatio="xMidYMid meet" aria-hidden="true" focusable="false"><rect width="600" height="600" fill="#F7F4ED"/><defs><pattern id="p20223l" width="5" height="5" patternUnits="userSpaceOnUse" patternTransform="rotate(30)"><rect width="5" height="5" fill="#F7F4ED"/><line x1="0" y1="0" x2="0" y2="5" stroke="#171B2B" stroke-width="1.5"/></pattern><pattern id="p20223r" width="5" height="5" patternUnits="userSpaceOnUse" patternTransform="rotate(-30)"><rect width="5" height="5" fill="#F7F4ED"/><line x1="0" y1="0" x2="0" y2="5" stroke="#171B2B" stroke-width="1.5"/></pattern><pattern id="p20223t" width="5" height="5" patternUnits="userSpaceOnUse" patternTransform="rotate(90)"><rect width="5" height="5" fill="#F7F4ED"/><line x1="0" y1="0" x2="0" y2="5" stroke="#171B2B" stroke-width=".8"/></pattern></defs><polygon points="385.4,332.9 442.3,365.7 442.3,300.0 385.4,267.1" fill="url(#p20223l)" stroke="#171B2B" stroke-width="1.2" stroke-linejoin="round"/><polygon points="499.2,332.9 442.3,365.7 442.3,300.0 499.2,267.1" fill="url(#p20223r)" stroke="#171B2B" stroke-width="1.2" stroke-linejoin="round"/><polygon points="442.3,234.3 499.2,267.1 442.3,300.0 385.4,267.1" fill="url(#p20223t)" stroke="#171B2B" stroke-width="1.2" stroke-linejoin="round"/><polygon points="271.5,201.4 328.5,234.3 328.5,168.6 271.5,135.7" fill="url(#p20223l)" stroke="#171B2B" stroke-width="1.2" stroke-linejoin="round"/><polygon points="385.4,201.4 328.5,234.3 328.5,168.6 385.4,135.7" fill="url(#p20223r)" stroke="#171B2B" stroke-width="1.2" stroke-linejoin="round"/><polygon points="328.5,102.9 385.4,135.7 328.5,168.6 271.5,135.7" fill="url(#p20223t)" stroke="#171B2B" stroke-width="1.2" stroke-linejoin="round"/><polygon points="328.5,365.7 385.4,398.6 385.4,332.9 328.5,300.0" fill="url(#p20223l)" stroke="#171B2B" stroke-width="1.2" stroke-linejoin="round"/><polygon points="442.3,365.7 385.4,398.6 385.4,332.9 442.3,300.0" fill="url(#p20223r)" stroke="#171B2B" stroke-width="1.2" stroke-linejoin="round"/><polygon points="385.4,267.1 442.3,300.0 385.4,332.9 328.5,300.0" fill="url(#p20223t)" stroke="#171B2B" stroke-width="1.2" stroke-linejoin="round"/><polygon points="100.8,300.0 157.7,332.9 157.7,267.1 100.8,234.3" fill="url(#p20223l)" stroke="#171B2B" stroke-width="1.2" stroke-linejoin="round"/><polygon points="214.6,300.0 157.7,332.9 157.7,267.1 214.6,234.3" fill="url(#p20223r)" stroke="#171B2B" stroke-width="1.2" stroke-linejoin="round"/><polygon points="157.7,201.4 214.6,234.3 157.7,267.1 100.8,234.3" fill="url(#p20223t)" stroke="#171B2B" stroke-width="1.2" stroke-linejoin="round"/><polygon points="214.6,234.3 271.5,267.1 271.5,201.4 214.6,168.6" fill="url(#p20223l)" stroke="#171B2B" stroke-width="1.2" stroke-linejoin="round"/><polygon points="328.5,234.3 271.5,267.1 271.5,201.4 328.5,168.6" fill="url(#p20223r)" stroke="#171B2B" stroke-width="1.2" stroke-linejoin="round"/><polygon points="271.5,135.7 328.5,168.6 271.5,201.4 214.6,168.6" fill="url(#p20223t)" stroke="#171B2B" stroke-width="1.2" stroke-linejoin="round"/><polygon points="328.5,234.3 385.4,267.1 385.4,201.4 328.5,168.6" fill="url(#p20223l)" stroke="#171B2B" stroke-width="1.2" stroke-linejoin="round"/><polygon points="442.3,234.3 385.4,267.1 385.4,201.4 442.3,168.6" fill="url(#p20223r)" stroke="#171B2B" stroke-width="1.2" stroke-linejoin="round"/><polygon points="385.4,135.7 442.3,168.6 385.4,201.4 328.5,168.6" fill="url(#p20223t)" stroke="#171B2B" stroke-width="1.2" stroke-linejoin="round"/><polygon points="100.8,234.3 157.7,267.1 157.7,201.4 100.8,168.6" fill="url(#p20223l)" stroke="#171B2B" stroke-width="1.2" stroke-linejoin="round"/><polygon points="214.6,234.3 157.7,267.1 157.7,201.4 214.6,168.6" fill="url(#p20223r)" stroke="#171B2B" stroke-width="1.2" stroke-linejoin="round"/><polygon points="157.7,135.7 214.6,168.6 157.7,201.4 100.8,168.6" fill="url(#p20223t)" stroke="#171B2B" stroke-width="1.2" stroke-linejoin="round"/><polygon points="328.5,168.6 385.4,201.4 385.4,135.7 328.5,102.9" fill="url(#p20223l)" stroke="#171B2B" stroke-width="1.2" stroke-linejoin="round"/><polygon points="442.3,168.6 385.4,201.4 385.4,135.7 442.3,102.9" fill="url(#p20223r)" stroke="#171B2B" stroke-width="1.2" stroke-linejoin="round"/><polygon points="385.4,70.0 442.3,102.9 385.4,135.7 328.5,102.9" fill="url(#p20223t)" stroke="#171B2B" stroke-width="1.2" stroke-linejoin="round"/><polygon points="385.4,398.6 442.3,431.4 442.3,365.7 385.4,332.9" fill="url(#p20223l)" stroke="#171B2B" stroke-width="1.2" stroke-linejoin="round"/><polygon points="499.2,398.6 442.3,431.4 442.3,365.7 499.2,332.9" fill="url(#p20223r)" stroke="#171B2B" stroke-width="1.2" stroke-linejoin="round"/><polygon points="442.3,300.0 499.2,332.9 442.3,365.7 385.4,332.9" fill="url(#p20223t)" stroke="#171B2B" stroke-width="1.2" stroke-linejoin="round"/><polygon points="271.5,398.6 328.5,431.4 328.5,365.7 271.5,332.9" fill="url(#p20223l)" stroke="#171B2B" stroke-width="1.2" stroke-linejoin="round"/><polygon points="385.4,398.6 328.5,431.4 328.5,365.7 385.4,332.9" fill="url(#p20223r)" stroke="#171B2B" stroke-width="1.2" stroke-linejoin="round"/><polygon points="328.5,300.0 385.4,332.9 328.5,365.7 271.5,332.9" fill="url(#p20223t)" stroke="#171B2B" stroke-width="1.2" stroke-linejoin="round"/><polygon points="157.7,332.9 214.6,365.7 214.6,300.0 157.7,267.1" fill="url(#p20223l)" stroke="#171B2B" stroke-width="1.2" stroke-linejoin="round"/><polygon points="271.5,332.9 214.6,365.7 214.6,300.0 271.5,267.1" fill="url(#p20223r)" stroke="#171B2B" stroke-width="1.2" stroke-linejoin="round"/><polygon points="214.6,234.3 271.5,267.1 214.6,300.0 157.7,267.1" fill="url(#p20223t)" stroke="#171B2B" stroke-width="1.2" stroke-linejoin="round"/><polygon points="271.5,332.9 328.5,365.7 328.5,300.0 271.5,267.1" fill="url(#p20223l)" stroke="#171B2B" stroke-width="1.2" stroke-linejoin="round"/><polygon points="385.4,332.9 328.5,365.7 328.5,300.0 385.4,267.1" fill="url(#p20223r)" stroke="#171B2B" stroke-width="1.2" stroke-linejoin="round"/><polygon points="328.5,234.3 385.4,267.1 328.5,300.0 271.5,267.1" fill="url(#p20223t)" stroke="#171B2B" stroke-width="1.2" stroke-linejoin="round"/><polygon points="385.4,267.1 442.3,300.0 442.3,234.3 385.4,201.4" fill="url(#p20223l)" stroke="#171B2B" stroke-width="1.2" stroke-linejoin="round"/><polygon points="499.2,267.1 442.3,300.0 442.3,234.3 499.2,201.4" fill="url(#p20223r)" stroke="#171B2B" stroke-width="1.2" stroke-linejoin="round"/><polygon points="442.3,168.6 499.2,201.4 442.3,234.3 385.4,201.4" fill="url(#p20223t)" stroke="#171B2B" stroke-width="1.2" stroke-linejoin="round"/><polygon points="157.7,267.1 214.6,300.0 214.6,234.3 157.7,201.4" fill="url(#p20223l)" stroke="#171B2B" stroke-width="1.2" stroke-linejoin="round"/><polygon points="271.5,267.1 214.6,300.0 214.6,234.3 271.5,201.4" fill="url(#p20223r)" stroke="#171B2B" stroke-width="1.2" stroke-linejoin="round"/><polygon points="214.6,168.6 271.5,201.4 214.6,234.3 157.7,201.4" fill="url(#p20223t)" stroke="#171B2B" stroke-width="1.2" stroke-linejoin="round"/><polygon points="271.5,267.1 328.5,300.0 328.5,234.3 271.5,201.4" fill="url(#p20223l)" stroke="#171B2B" stroke-width="1.2" stroke-linejoin="round"/><polygon points="385.4,267.1 328.5,300.0 328.5,234.3 385.4,201.4" fill="url(#p20223r)" stroke="#171B2B" stroke-width="1.2" stroke-linejoin="round"/><polygon points="328.5,168.6 385.4,201.4 328.5,234.3 271.5,201.4" fill="url(#p20223t)" stroke="#171B2B" stroke-width="1.2" stroke-linejoin="round"/><polygon points="157.7,201.4 214.6,234.3 214.6,168.6 157.7,135.7" fill="url(#p20223l)" stroke="#171B2B" stroke-width="1.2" stroke-linejoin="round"/><polygon points="271.5,201.4 214.6,234.3 214.6,168.6 271.5,135.7" fill="url(#p20223r)" stroke="#171B2B" stroke-width="1.2" stroke-linejoin="round"/><polygon points="214.6,102.9 271.5,135.7 214.6,168.6 157.7,135.7" fill="url(#p20223t)" stroke="#171B2B" stroke-width="1.2" stroke-linejoin="round"/><polygon points="271.5,201.4 328.5,234.3 328.5,168.6 271.5,135.7" fill="url(#p20223l)" stroke="#171B2B" stroke-width="1.2" stroke-linejoin="round"/><polygon points="385.4,201.4 328.5,234.3 328.5,168.6 385.4,135.7" fill="url(#p20223r)" stroke="#171B2B" stroke-width="1.2" stroke-linejoin="round"/><polygon points="328.5,102.9 385.4,135.7 328.5,168.6 271.5,135.7" fill="url(#p20223t)" stroke="#171B2B" stroke-width="1.2" stroke-linejoin="round"/><polygon points="214.6,431.4 271.5,464.3 271.5,398.6 214.6,365.7" fill="url(#p20223l)" stroke="#171B2B" stroke-width="1.2" stroke-linejoin="round"/><polygon points="328.5,431.4 271.5,464.3 271.5,398.6 328.5,365.7" fill="url(#p20223r)" stroke="#171B2B" stroke-width="1.2" stroke-linejoin="round"/><polygon points="271.5,332.9 328.5,365.7 271.5,398.6 214.6,365.7" fill="url(#p20223t)" stroke="#171B2B" stroke-width="1.2" stroke-linejoin="round"/><polygon points="328.5,431.4 385.4,464.3 385.4,398.6 328.5,365.7" fill="url(#p20223l)" stroke="#171B2B" stroke-width="1.2" stroke-linejoin="round"/><polygon points="442.3,431.4 385.4,464.3 385.4,398.6 442.3,365.7" fill="url(#p20223r)" stroke="#171B2B" stroke-width="1.2" stroke-linejoin="round"/><polygon points="385.4,332.9 442.3,365.7 385.4,398.6 328.5,365.7" fill="url(#p20223t)" stroke="#171B2B" stroke-width="1.2" stroke-linejoin="round"/><polygon points="214.6,365.7 271.5,398.6 271.5,332.9 214.6,300.0" fill="url(#p20223l)" stroke="#171B2B" stroke-width="1.2" stroke-linejoin="round"/><polygon points="328.5,365.7 271.5,398.6 271.5,332.9 328.5,300.0" fill="url(#p20223r)" stroke="#171B2B" stroke-width="1.2" stroke-linejoin="round"/><polygon points="271.5,267.1 328.5,300.0 271.5,332.9 214.6,300.0" fill="url(#p20223t)" stroke="#171B2B" stroke-width="1.2" stroke-linejoin="round"/><polygon points="328.5,300.0 385.4,332.9 385.4,267.1 328.5,234.3" fill="url(#p20223l)" stroke="#171B2B" stroke-width="1.2" stroke-linejoin="round"/><polygon points="442.3,300.0 385.4,332.9 385.4,267.1 442.3,234.3" fill="url(#p20223r)" stroke="#171B2B" stroke-width="1.2" stroke-linejoin="round"/><polygon points="385.4,201.4 442.3,234.3 385.4,267.1 328.5,234.3" fill="url(#p20223t)" stroke="#171B2B" stroke-width="1.2" stroke-linejoin="round"/><polygon points="214.6,300.0 271.5,332.9 271.5,267.1 214.6,234.3" fill="url(#p20223l)" stroke="#171B2B" stroke-width="1.2" stroke-linejoin="round"/><polygon points="328.5,300.0 271.5,332.9 271.5,267.1 328.5,234.3" fill="url(#p20223r)" stroke="#171B2B" stroke-width="1.2" stroke-linejoin="round"/><polygon points="271.5,201.4 328.5,234.3 271.5,267.1 214.6,234.3" fill="url(#p20223t)" stroke="#171B2B" stroke-width="1.2" stroke-linejoin="round"/><polygon points="214.6,234.3 271.5,267.1 271.5,201.4 214.6,168.6" fill="url(#p20223l)" stroke="#171B2B" stroke-width="1.2" stroke-linejoin="round"/><polygon points="328.5,234.3 271.5,267.1 271.5,201.4 328.5,168.6" fill="url(#p20223r)" stroke="#171B2B" stroke-width="1.2" stroke-linejoin="round"/><polygon points="271.5,135.7 328.5,168.6 271.5,201.4 214.6,168.6" fill="url(#p20223t)" stroke="#171B2B" stroke-width="1.2" stroke-linejoin="round"/><polygon points="328.5,234.3 385.4,267.1 385.4,201.4 328.5,168.6" fill="url(#p20223l)" stroke="#171B2B" stroke-width="1.2" stroke-linejoin="round"/><polygon points="442.3,234.3 385.4,267.1 385.4,201.4 442.3,168.6" fill="url(#p20223r)" stroke="#171B2B" stroke-width="1.2" stroke-linejoin="round"/><polygon points="385.4,135.7 442.3,168.6 385.4,201.4 328.5,168.6" fill="url(#p20223t)" stroke="#171B2B" stroke-width="1.2" stroke-linejoin="round"/><polygon points="271.5,464.3 328.5,497.1 328.5,431.4 271.5,398.6" fill="url(#p20223l)" stroke="#171B2B" stroke-width="1.2" stroke-linejoin="round"/><polygon points="385.4,464.3 328.5,497.1 328.5,431.4 385.4,398.6" fill="url(#p20223r)" stroke="#171B2B" stroke-width="1.2" stroke-linejoin="round"/><polygon points="328.5,365.7 385.4,398.6 328.5,431.4 271.5,398.6" fill="url(#p20223t)" stroke="#171B2B" stroke-width="1.2" stroke-linejoin="round"/><polygon points="271.5,398.6 328.5,431.4 328.5,365.7 271.5,332.9" fill="url(#p20223l)" stroke="#171B2B" stroke-width="1.2" stroke-linejoin="round"/><polygon points="385.4,398.6 328.5,431.4 328.5,365.7 385.4,332.9" fill="url(#p20223r)" stroke="#171B2B" stroke-width="1.2" stroke-linejoin="round"/><polygon points="328.5,300.0 385.4,332.9 328.5,365.7 271.5,332.9" fill="url(#p20223t)" stroke="#171B2B" stroke-width="1.2" stroke-linejoin="round"/><polygon points="271.5,332.9 328.5,365.7 328.5,300.0 271.5,267.1" fill="url(#p20223l)" stroke="#171B2B" stroke-width="1.2" stroke-linejoin="round"/><polygon points="385.4,332.9 328.5,365.7 328.5,300.0 385.4,267.1" fill="url(#p20223r)" stroke="#171B2B" stroke-width="1.2" stroke-linejoin="round"/><polygon points="328.5,234.3 385.4,267.1 328.5,300.0 271.5,267.1" fill="url(#p20223t)" stroke="#171B2B" stroke-width="1.2" stroke-linejoin="round"/><polygon points="271.5,267.1 328.5,300.0 328.5,234.3 271.5,201.4" fill="url(#p20223l)" stroke="#171B2B" stroke-width="1.2" stroke-linejoin="round"/><polygon points="385.4,267.1 328.5,300.0 328.5,234.3 385.4,201.4" fill="url(#p20223r)" stroke="#171B2B" stroke-width="1.2" stroke-linejoin="round"/><polygon points="328.5,168.6 385.4,201.4 328.5,234.3 271.5,201.4" fill="url(#p20223t)" stroke="#171B2B" stroke-width="1.2" stroke-linejoin="round"/><polygon points="328.5,497.1 385.4,530.0 385.4,464.3 328.5,431.4" fill="url(#p20223l)" stroke="#171B2B" stroke-width="1.2" stroke-linejoin="round"/><polygon points="442.3,497.1 385.4,530.0 385.4,464.3 442.3,431.4" fill="url(#p20223r)" stroke="#171B2B" stroke-width="1.2" stroke-linejoin="round"/><polygon points="385.4,398.6 442.3,431.4 385.4,464.3 328.5,431.4" fill="url(#p20223t)" stroke="#171B2B" stroke-width="1.2" stroke-linejoin="round"/><polygon points="328.5,431.4 385.4,464.3 385.4,398.6 328.5,365.7" fill="url(#p20223l)" stroke="#171B2B" stroke-width="1.2" stroke-linejoin="round"/><polygon points="442.3,431.4 385.4,464.3 385.4,398.6 442.3,365.7" fill="url(#p20223r)" stroke="#171B2B" stroke-width="1.2" stroke-linejoin="round"/><polygon points="385.4,332.9 442.3,365.7 385.4,398.6 328.5,365.7" fill="url(#p20223t)" stroke="#171B2B" stroke-width="1.2" stroke-linejoin="round"/><polygon points="328.5,365.7 385.4,398.6 385.4,332.9 328.5,300.0" fill="url(#p20223l)" stroke="#171B2B" stroke-width="1.2" stroke-linejoin="round"/><polygon points="442.3,365.7 385.4,398.6 385.4,332.9 442.3,300.0" fill="url(#p20223r)" stroke="#171B2B" stroke-width="1.2" stroke-linejoin="round"/><polygon points="385.4,267.1 442.3,300.0 385.4,332.9 328.5,300.0" fill="url(#p20223t)" stroke="#171B2B" stroke-width="1.2" stroke-linejoin="round"/><polygon points="328.5,300.0 385.4,332.9 385.4,267.1 328.5,234.3" fill="url(#p20223l)" stroke="#171B2B" stroke-width="1.2" stroke-linejoin="round"/><polygon points="442.3,300.0 385.4,332.9 385.4,267.1 442.3,234.3" fill="url(#p20223r)" stroke="#171B2B" stroke-width="1.2" stroke-linejoin="round"/><polygon points="385.4,201.4 442.3,234.3 385.4,267.1 328.5,234.3" fill="url(#p20223t)" stroke="#171B2B" stroke-width="1.2" stroke-linejoin="round"/><polygon points="385.4,398.6 442.3,431.4 442.3,365.7 385.4,332.9" fill="url(#p20223l)" stroke="#171B2B" stroke-width="1.2" stroke-linejoin="round"/><polygon points="499.2,398.6 442.3,431.4 442.3,365.7 499.2,332.9" fill="url(#p20223r)" stroke="#171B2B" stroke-width="1.2" stroke-linejoin="round"/><polygon points="442.3,300.0 499.2,332.9 442.3,365.7 385.4,332.9" fill="url(#p20223t)" stroke="#171B2B" stroke-width="1.2" stroke-linejoin="round"/><polygon points="385.4,332.9 442.3,365.7 442.3,300.0 385.4,267.1" fill="url(#p20223l)" stroke="#171B2B" stroke-width="1.2" stroke-linejoin="round"/><polygon points="499.2,332.9 442.3,365.7 442.3,300.0 499.2,267.1" fill="url(#p20223r)" stroke="#171B2B" stroke-width="1.2" stroke-linejoin="round"/><polygon points="442.3,234.3 499.2,267.1 442.3,300.0 385.4,267.1" fill="url(#p20223t)" stroke="#171B2B" stroke-width="1.2" stroke-linejoin="round"/></svg>